<svg width="69" height="24" viewBox="0 0 69 24" fill="none" xmlns="http://www.w3.org/2000/svg">
<g clip-path="url(#clip0_51_357)">
<path d="M24.0201 13.8761H37.4337C37.354 13.2312 37.3145 12.5795 37.3145 11.921C37.3145 11.2625 37.3534 10.6102 37.4337 9.96463H24.0201C23.5962 9.96463 23.2527 10.3154 23.2527 10.7466V13.0934C23.2527 13.5253 23.5962 13.8761 24.0201 13.8761Z" fill="url(#paint0_linear_51_357)"/>
<path d="M18.6006 0.188812H0.997072C0.557117 0.188812 0.200867 0.552522 0.200867 1.00017V3.28956C0.200867 3.73789 0.557117 4.10092 0.997072 4.10092H7.881V23.0132C7.881 23.4615 8.23725 23.8245 8.67721 23.8245H10.9239C11.3638 23.8245 11.7201 23.4615 11.7201 23.0132V4.10092H18.6013C19.0413 4.10092 19.3975 3.73789 19.3975 3.28956V1.00017C19.3968 0.552522 19.0406 0.188812 18.6006 0.188812Z" fill="url(#paint1_linear_51_357)"/>
<path d="M24.0201 4.10023H39.3676C40.0353 2.91971 40.8542 1.83472 41.8112 0.858908C42.0382 0.62758 42.2719 0.403759 42.5116 0.188126H24.0201C23.5962 0.188126 23.2527 0.53887 23.2527 0.970137V3.31686C23.2527 3.75017 23.5962 4.10023 24.0201 4.10023Z" fill="url(#paint2_linear_51_357)"/>
<path d="M68.5199 23.0391L66.8384 19.9431C66.6844 19.6593 66.2839 19.6593 66.1299 19.9431L64.4485 23.0391C64.2991 23.3141 64.494 23.6519 64.8027 23.6519H68.1663C68.4743 23.6519 68.6699 23.3141 68.5199 23.0391Z" fill="url(#paint3_linear_51_357)"/>
<path d="M52.6667 0.188812C46.3085 0.188812 41.1542 5.44112 41.1542 11.9204C41.1542 18.3989 46.3085 23.6512 52.6667 23.6512C59.0243 23.6512 64.1786 18.3989 64.1786 11.9204C64.1786 5.4418 59.0243 0.188812 52.6667 0.188812ZM52.6667 19.7405C48.4353 19.7405 44.9926 16.2323 44.9926 11.9204C44.9926 7.60905 48.4353 4.10092 52.6667 4.10092C56.8975 4.10092 60.3402 7.60905 60.3402 11.9204C60.3402 16.2323 56.8975 19.7405 52.6667 19.7405Z" fill="url(#paint4_linear_51_357)"/>
<path d="M39.3676 19.7405H24.0201C23.5962 19.7405 23.2527 20.0912 23.2527 20.5225V22.8692C23.2527 23.3011 23.5969 23.6512 24.0201 23.6512H42.5109C42.2712 23.4363 42.0388 23.2131 41.8118 22.9818C40.8536 22.006 40.0359 20.921 39.3676 19.7405Z" fill="url(#paint5_linear_51_357)"/>
</g>
<defs>
<linearGradient id="paint0_linear_51_357" x1="0.200895" y1="11.9199" x2="68.5714" y2="11.9199" gradientUnits="userSpaceOnUse">
<stop stop-color="#13499A"/>
<stop offset="1" stop-color="#55F9FD"/>
</linearGradient>
<linearGradient id="paint1_linear_51_357" x1="0.200867" y1="12.0066" x2="68.5714" y2="12.0066" gradientUnits="userSpaceOnUse">
<stop stop-color="#13499A"/>
<stop offset="1" stop-color="#55F9FD"/>
</linearGradient>
<linearGradient id="paint2_linear_51_357" x1="0.2009" y1="2.14468" x2="68.5714" y2="2.14468" gradientUnits="userSpaceOnUse">
<stop stop-color="#13499A"/>
<stop offset="1" stop-color="#55F9FD"/>
</linearGradient>
<linearGradient id="paint3_linear_51_357" x1="0.200995" y1="21.6914" x2="68.5714" y2="21.6914" gradientUnits="userSpaceOnUse">
<stop stop-color="#13499A"/>
<stop offset="1" stop-color="#55F9FD"/>
</linearGradient>
<linearGradient id="paint4_linear_51_357" x1="0.200896" y1="11.9205" x2="68.5714" y2="11.9205" gradientUnits="userSpaceOnUse">
<stop stop-color="#13499A"/>
<stop offset="1" stop-color="#55F9FD"/>
</linearGradient>
<linearGradient id="paint5_linear_51_357" x1="0.200897" y1="21.696" x2="68.5714" y2="21.696" gradientUnits="userSpaceOnUse">
<stop stop-color="#13499A"/>
<stop offset="1" stop-color="#55F9FD"/>
</linearGradient>
<clipPath id="clip0_51_357">
<rect width="68.5714" height="24" fill="white"/>
</clipPath>
</defs>
</svg>
